Coordinates
version=1
nRows=11
nColumns=46
inDegrees=yes

Units are S.I. units (second, meters, Newtons, ...)
Angles are in degrees.

endheader
time	pelvis_tilt	pelvis_list	pelvis_rotation	pelvis_tx	pelvis_ty	pelvis_tz	bb_angle	bb_tx	bb_ty	bb_tz	hip_flexion_r	hip_adduction_r	hip_rotation_r	knee_angle_r	knee_angle_r_beta	ankle_angle_r	subtalar_angle_r	mtp_angle_r	crank_angle_r	hip_flexion_l	hip_adduction_l	hip_rotation_l	knee_angle_l	knee_angle_l_beta	ankle_angle_l	subtalar_angle_l	mtp_angle_l	crank_angle_l	lumbar_extension	lumbar_bending	lumbar_rotation	arm_flex_r	arm_add_r	arm_rot_r	elbow_flex_r	pro_sup_r	wrist_flex_r	wrist_dev_r	arm_flex_l	arm_add_l	arm_rot_l	elbow_flex_l	pro_sup_l	wrist_flex_l	wrist_dev_l
      5.00500000	    -18.67361900	      3.41505976	      7.18402222	      0.15998557	      1.16002295	     -0.24401210	      0.00000000	      0.50000000	      0.00000000	      0.25000000	     50.07210329	    -14.36230734	    -10.15598150	     59.05545019	      1.03071205	     -4.78813123	     -2.93654558	      0.00000000	      0.00000000	     92.03576359	     -2.22944791	     -0.97273441	     98.63747387	      1.72154868	      1.56756532	      6.54704122	      0.00000000	      0.00000000	    -63.59509349	     -6.40604834	     -5.29818826	     89.53871417	    -31.76926257	     36.17142437	     62.22761527	     32.06184588	      0.00000000	      0.00000000	     89.79803184	     -8.55999504	     34.04615303	     68.43132591	     32.32964203	      0.00000000	      0.00000000
      5.01000000	    -18.76046759	      3.09664461	      7.21013033	      0.15947689	      1.15937384	     -0.24385474	      0.00000000	      0.50000000	      0.00000000	      0.25000000	     51.27580781	    -14.23170889	     -9.83054076	     61.41361041	      1.07186971	     -6.19561723	     -3.98344046	      0.00000000	      0.00000000	     91.02292955	     -2.20442057	     -0.64364132	     96.76276596	      1.68882886	      3.66705299	      7.80023170	      0.00000000	      0.00000000	    -63.83394387	     -6.40812244	     -3.75596711	     89.48390451	    -35.40720487	     36.74493281	     65.24803515	     33.05690215	      0.00000000	      0.00000000	     89.80402505	     -6.67517725	     33.59718081	     68.56668409	     30.83318246	      0.00000000	      0.00000000
      5.01500000	    -18.83564916	      2.86451957	      7.26008084	      0.15901937	      1.15865716	     -0.24389020	      0.00000000	      0.50000000	      0.00000000	      0.25000000	     52.52058087	    -14.21858030	     -9.47471661	     63.81436523	      1.11377078	     -7.52728413	     -4.82743951	      0.00000000	      0.00000000	     89.85025811	     -2.12690488	     -0.48893771	     94.72444548	      1.65325346	      5.72876213	      8.65437921	      0.00000000	      0.00000000	    -63.87567426	     -6.37450467	     -2.88723733	     89.46546073	    -37.18231502	     36.91636050	     66.35463282	     33.73613194	      0.00000000	      0.00000000	     89.80688604	     -5.69655345	     33.40721551	     68.83476905	     29.29223081	      0.00000000	      0.00000000
      5.02000000	    -18.90442870	      2.68345739	      7.29064150	      0.15864635	      1.15772555	     -0.24393565	      0.00000000	      0.50000000	      0.00000000	      0.25000000	     53.83989392	    -14.22861495	     -9.02671916	     66.28163245	      1.15683272	     -8.86097528	     -5.46178572	      0.00000000	      0.00000000	     88.55408321	     -2.04443800	     -0.44958395	     92.59160646	      1.61602839	      7.78380419	      9.23893066	      0.00000000	      0.00000000	    -63.91651781	     -6.32605322	     -2.02923008	     89.44414751	    -38.87628815	     36.95257442	     67.47264055	     34.39784220	      0.00000000	      0.00000000	     89.80782611	     -4.89489945	     33.44920920	     69.06488399	     28.00937881	      0.00000000	      0.00000000
      5.02500000	    -18.87797259	      2.33434391	      7.32509438	      0.15832517	      1.15659740	     -0.24413003	      0.00000000	      0.50000000	      0.00000000	      0.25000000	     55.05741389	    -14.15948233	     -8.77340679	     68.74970042	      1.19990863	     -9.94882086	     -5.69165483	      0.00000000	      0.00000000	     87.17194541	     -1.97578361	     -0.32796905	     90.44043971	      1.57848345	      9.59087207	      9.25910308	      0.00000000	      0.00000000	    -63.83885444	     -6.03238714	     -1.44786580	     89.46940378	    -39.05086221	     36.78052322	     67.49780351	     34.42519806	      0.00000000	      0.00000000	     89.80345314	     -4.81533269	     33.51476263	     69.17800042	     28.00177172	      0.00000000	      0.00000000
      5.03000000	    -18.87043120	      2.22789317	      7.26325324	      0.15815246	      1.15572289	     -0.24396191	      0.00000000	      0.50000000	      0.00000000	      0.25000000	     56.37797026	    -14.08878656	     -8.19429018	     71.15327036	      1.24185884	    -11.45157779	     -6.51431972	      0.00000000	      0.00000000	     85.58641725	     -1.96353224	     -0.44873915	     88.05492220	      1.53684831	     11.38911120	      9.61165144	      0.00000000	      0.00000000	    -64.04116971	     -6.22573957	     -0.11323786	     89.39376409	    -42.19668314	     37.08280845	     69.66565239	     35.22951009	      0.00000000	      0.00000000	     89.81017982	     -3.02943304	     33.53775950	     68.83645387	     27.04108935	      0.00000000	      0.00000000
      5.03500000	    -18.77664051	      1.93778593	      7.18743501	      0.15803364	      1.15449372	     -0.24438175	      0.00000000	      0.50000000	      0.00000000	      0.25000000	     57.60468897	    -13.98112366	     -7.83615061	     73.56036112	      1.28387050	    -12.60958239	     -6.66637141	      0.00000000	      0.00000000	     83.99452793	     -1.91129286	     -0.43824944	     85.74208237	      1.49648164	     12.96101130	      9.33007095	      0.00000000	      0.00000000	    -64.01928868	     -6.03460748	      0.49668259	     89.39961563	    -42.45537267	     36.93210288	     69.74920468	     35.27816746	      0.00000000	      0.00000000	     89.80698723	     -2.85934425	     33.75308831	     68.79556782	     26.97985154	      0.00000000	      0.00000000
      5.04000000	    -18.61264329	      1.79688279	      7.11801891	      0.15781477	      1.15348612	     -0.24441690	      0.00000000	      0.50000000	      0.00000000	      0.25000000	     58.82386624	    -13.89903211	     -7.30728932	     75.97121776	      1.32594789	    -13.77496099	     -6.92698026	      0.00000000	      0.00000000	     82.23732300	     -1.83839775	     -0.57838316	     83.27072921	      1.45334840	     14.03027927	      8.88737668	      0.00000000	      0.00000000	    -64.12810184	     -6.03997275	      1.21175213	     89.37397493	    -43.30762934	     36.71454565	     70.19509037	     35.42106142	      0.00000000	      0.00000000	     89.80865075	     -2.22759675	     34.14561577	     68.46005410	     26.80999593	      0.00000000	      0.00000000
      5.04500000	    -18.46490806	      1.37957063	      7.04391107	      0.15768243	      1.15216671	     -0.24467097	      0.00000000	      0.50000000	      0.00000000	      0.25000000	     60.01415885	    -13.66968081	     -7.04995243	     78.28805559	      1.36638433	    -14.76330339	     -6.72861852	      0.00000000	      0.00000000	     80.58121316	     -1.79786742	     -0.39178282	     80.84687825	      1.41104422	     15.09583276	      8.42121656	      0.00000000	      0.00000000	    -64.08573528	     -5.71246825	      1.97656386	     89.39718042	    -43.56888236	     36.66133956	     70.45487646	     35.50237720	      0.00000000	      0.00000000	     89.80293481	     -2.00384682	     34.26659128	     68.28120663	     26.74464421	      0.00000000	      0.00000000
      5.05000000	    -18.27242577	      1.12125796	      7.00055372	      0.15763491	      1.15102720	     -0.24500823	      0.00000000	      0.50000000	      0.00000000	      0.25000000	     61.21165163	    -13.59252112	     -6.68168252	     80.61703586	      1.40703271	    -15.84517231	     -6.94724341	      0.00000000	      0.00000000	     78.79164787	     -1.65314035	     -0.39249157	     78.28770963	      1.36637830	     15.66376487	      7.50281202	      0.00000000	      0.00000000	    -64.28391890	     -5.63799717	      3.70343636	     89.32840516	    -46.92099301	     37.17054529	     72.84102168	     36.37219699	      0.00000000	      0.00000000	     89.80902034	      0.17266357	     34.09745810	     67.17163241	     25.80084674	      0.00000000	      0.00000000
      5.05500000	    -18.08339685	      0.73365010	      6.94186712	      0.15754015	      1.14959033	     -0.24557438	      0.00000000	      0.50000000	      0.00000000	      0.25000000	     62.40592503	    -13.43764152	     -6.44192338	     82.88202664	      1.44656426	    -16.86001505	     -7.10191494	      0.00000000	      0.00000000	     77.04908705	     -1.52444970	     -0.11246166	     75.78972040	      1.32278016	     16.41086729	      6.89021389	      0.00000000	      0.00000000	    -64.24285463	     -5.23379789	      4.28572984	     89.35502652	    -46.77483160	     37.11558559	     72.90209684	     36.41161206	      0.00000000	      0.00000000	     89.80276659	      0.19492044	     34.30086041	     67.01439492	     25.75183811	      0.00000000	      0.00000000
